<?xml version="1.0" encoding="utf-8"?>
<!-- Generator: Adobe Illustrator 27.4.1, SVG Export Plug-In . SVG Version: 6.00 Build 0)  -->
<svg version="1.1" id="Bakery_Shop" xmlns="http://www.w3.org/2000/svg" xmlns:xlink="http://www.w3.org/1999/xlink" x="0px"
	 y="0px" viewBox="0 0 1920 1080" style="enable-background:new 0 0 1920 1080;" xml:space="preserve">
<style type="text/css">
	.st0{fill:#FFFFFF;}
	.st1{fill:#3E3E3F;}
	.st2{font-family:'FiraSans-Medium';}
	.st3{font-size:20px;}
	.st4{fill:none;}
	.st5{font-family:'FiraSans-ExtraLight';}
	.st6{font-size:16px;}
</style>
<g id="Feature_1_00000013187844883409730690000009348453673863610547_">
	<path class="st0" d="M1053.1,550.8c0,3.3-2.7,6-6,6h-298c-3.3,0-6-2.7-6-6v-273c0-3.3,2.7-6,6-6h298c3.3,0,6,2.7,6,6V550.8z"/>
	<text transform="matrix(1 0 0 1 866.8195 323.6116)" class="st1 st2 st3">Bakery</text>
	<rect x="772.9" y="350.6" class="st4" width="250.3" height="155.1"/>
	<text transform="matrix(1 0 0 1 772.9171 364.0842)"><tspan x="0" y="0" class="st1 st5 st6">Lorem ipsum dolor sit amet, </tspan><tspan x="0" y="26" class="st1 st5 st6">consectetur adipiscing elit. </tspan><tspan x="0" y="52" class="st1 st5 st6">Quisque eu ornare dolor, sed </tspan><tspan x="0" y="78" class="st1 st5 st6">venenatis leo. Integer sed metus </tspan><tspan x="0" y="104" class="st1 st5 st6">euismod, laoreet neque non, </tspan><tspan x="0" y="130" class="st1 st5 st6">venenatis lacus.</tspan></text>
</g>
</svg>
