<?xml version="1.0" encoding="utf-8"?>
<!-- Generator: Adobe Illustrator 27.4.1, SVG Export Plug-In . SVG Version: 6.00 Build 0)  -->
<svg version="1.1" id="Cup_Leaf" xmlns="http://www.w3.org/2000/svg" xmlns:xlink="http://www.w3.org/1999/xlink" x="0px" y="0px"
	 viewBox="0 0 1920 1080" style="enable-background:new 0 0 1920 1080;" xml:space="preserve">
<style type="text/css">
	.st0{fill:#D8BFB1;}
	.st1{fill:#3E3E3F;}
	.st2{font-family:'FiraSans-Light';}
	.st3{font-size:30px;}
	.st4{fill:none;stroke:#69442B;stroke-miterlimit:10;}
	.st5{font-size:16px;}
	.st6{fill:#A44D0E;}
	.st7{opacity:0.38;fill:#A44D0E;}
</style>
<g id="Menu">
	<g id="Platinum">
		<path class="st0" d="M1060.4,749.3c0,3.3-2.7,6-6,6h-298c-3.3,0-6-2.7-6-6v-438c0-3.3,2.7-6,6-6h298c3.3,0,6,2.7,6,6V749.3z"/>
		<text transform="matrix(1 0 0 1 860.5223 354.7769)" class="st1 st2 st3">Bakery</text>
		<line class="st4" x1="750.4" y1="384.8" x2="1060.4" y2="384.8"/>
		<g>
			<g>
				<text transform="matrix(1 0 0 1 830.3984 447.2508)" class="st1 st2 st5">Lorem ipsum dolor</text>
			</g>
			<g>
				<text transform="matrix(1 0 0 1 830.3984 497.2508)" class="st1 st2 st5">Sit amet consectetur</text>
			</g>
			<g>
				<text transform="matrix(1 0 0 1 830.3984 547.2509)" class="st1 st2 st5">Mauris nisl dui</text>
			</g>
			<g>
				<text transform="matrix(1 0 0 1 830.3984 597.2507)" class="st1 st2 st5">Viverra in porttitor vitae</text>
			</g>
			<g>
				<g>
					<text transform="matrix(1 0 0 1 830.3984 647.2507)" class="st1 st2 st5">Integer vitae commodo</text>
				</g>
			</g>
			<g>
				<g>
					<text transform="matrix(1 0 0 1 830.3984 697.2507)" class="st1 st2 st5">Nullam malesuada dictum</text>
				</g>
			</g>
		</g>
		<g>
			<g>
				<path class="st6" d="M815.3,444.1c1-4.2-1.9-8.3-6.6-9.4c-4.7-1.1-9.4,1.3-10.4,5.5c-1,4.2,2.1,7.7,6.8,8.8
					C809.8,450.1,814.3,448.3,815.3,444.1z M806.8,442.2c-1.1-0.3-1.9-0.9-1.8-1.5c0.1-0.6,1.2-0.9,2.3-0.6c1.1,0.3,1.9,1,1.8,1.6
					C808.9,442.3,807.9,442.5,806.8,442.2z"/>
				<path class="st6" d="M815.3,444.1c1-4.2-1.9-8.3-6.6-9.4c-4.7-1.1-9.4,1.3-10.4,5.5c-1,4.2,2.1,7.7,6.8,8.8
					C809.8,450.1,814.3,448.3,815.3,444.1z M806.8,442.2c-1.1-0.3-1.9-0.9-1.8-1.5c0.1-0.6,1.2-0.9,2.3-0.6c1.1,0.3,1.9,1,1.8,1.6
					C808.9,442.3,807.9,442.5,806.8,442.2z"/>
				<path class="st7" d="M805.4,447c4.6,1.1,9-0.6,10.1-4.5c0-3.6-2.7-6.8-6.8-7.8c-4.6-1.1-9.1,1.1-10.3,5.1
					C798.4,443.3,801.3,446.1,805.4,447z M807.3,440.1c1.1,0.3,1.9,1,1.8,1.6c-0.1,0.6-1.2,0.8-2.3,0.5c-1.1-0.3-1.9-0.9-1.8-1.5
					C805.1,440.1,806.2,439.9,807.3,440.1z"/>
			</g>
			<g>
				<path class="st6" d="M815.3,493.1c1-4.2-1.9-8.3-6.6-9.4c-4.7-1.1-9.4,1.3-10.4,5.5c-1,4.2,2.1,7.7,6.8,8.8
					C809.8,499.1,814.3,497.3,815.3,493.1z M806.8,491.2c-1.1-0.3-1.9-0.9-1.8-1.5c0.1-0.6,1.2-0.9,2.3-0.6c1.1,0.3,1.9,1,1.8,1.6
					C808.9,491.3,807.9,491.5,806.8,491.2z"/>
				<path class="st6" d="M815.3,493.1c1-4.2-1.9-8.3-6.6-9.4c-4.7-1.1-9.4,1.3-10.4,5.5c-1,4.2,2.1,7.7,6.8,8.8
					C809.8,499.1,814.3,497.3,815.3,493.1z M806.8,491.2c-1.1-0.3-1.9-0.9-1.8-1.5c0.1-0.6,1.2-0.9,2.3-0.6c1.1,0.3,1.9,1,1.8,1.6
					C808.9,491.3,807.9,491.5,806.8,491.2z"/>
				<path class="st7" d="M805.4,496c4.6,1.1,9-0.6,10.1-4.5c0-3.6-2.7-6.8-6.8-7.8c-4.6-1.1-9.1,1.1-10.3,5.1
					C798.4,492.3,801.3,495.1,805.4,496z M807.3,489.1c1.1,0.3,1.9,1,1.8,1.6c-0.1,0.6-1.2,0.8-2.3,0.5c-1.1-0.3-1.9-0.9-1.8-1.5
					C805.1,489.1,806.2,488.9,807.3,489.1z"/>
			</g>
			<g>
				<path class="st6" d="M815.3,543.1c1-4.2-1.9-8.3-6.6-9.4c-4.7-1.1-9.4,1.3-10.4,5.5c-1,4.2,2.1,7.7,6.8,8.8
					C809.8,549.1,814.3,547.3,815.3,543.1z M806.8,541.2c-1.1-0.3-1.9-0.9-1.8-1.5c0.1-0.6,1.2-0.9,2.3-0.6c1.1,0.3,1.9,1,1.8,1.6
					C808.9,541.3,807.9,541.5,806.8,541.2z"/>
				<path class="st6" d="M815.3,543.1c1-4.2-1.9-8.3-6.6-9.4c-4.7-1.1-9.4,1.3-10.4,5.5c-1,4.2,2.1,7.7,6.8,8.8
					C809.8,549.1,814.3,547.3,815.3,543.1z M806.8,541.2c-1.1-0.3-1.9-0.9-1.8-1.5c0.1-0.6,1.2-0.9,2.3-0.6c1.1,0.3,1.9,1,1.8,1.6
					C808.9,541.3,807.9,541.5,806.8,541.2z"/>
				<path class="st7" d="M805.4,546c4.6,1.1,9-0.6,10.1-4.5c0-3.6-2.7-6.8-6.8-7.8c-4.6-1.1-9.1,1.1-10.3,5.1
					C798.4,542.3,801.3,545.1,805.4,546z M807.3,539.1c1.1,0.3,1.9,1,1.8,1.6c-0.1,0.6-1.2,0.8-2.3,0.5c-1.1-0.3-1.9-0.9-1.8-1.5
					C805.1,539.1,806.2,538.9,807.3,539.1z"/>
			</g>
			<g>
				<path class="st6" d="M815.3,594.1c1-4.2-1.9-8.3-6.6-9.4c-4.7-1.1-9.4,1.3-10.4,5.5c-1,4.2,2.1,7.7,6.8,8.8
					C809.8,600.1,814.3,598.3,815.3,594.1z M806.8,592.2c-1.1-0.3-1.9-0.9-1.8-1.5c0.1-0.6,1.2-0.9,2.3-0.6c1.1,0.3,1.9,1,1.8,1.6
					C808.9,592.3,807.9,592.5,806.8,592.2z"/>
				<path class="st6" d="M815.3,594.1c1-4.2-1.9-8.3-6.6-9.4c-4.7-1.1-9.4,1.3-10.4,5.5c-1,4.2,2.1,7.7,6.8,8.8
					C809.8,600.1,814.3,598.3,815.3,594.1z M806.8,592.2c-1.1-0.3-1.9-0.9-1.8-1.5c0.1-0.6,1.2-0.9,2.3-0.6c1.1,0.3,1.9,1,1.8,1.6
					C808.9,592.3,807.9,592.5,806.8,592.2z"/>
				<path class="st7" d="M805.4,597c4.6,1.1,9-0.6,10.1-4.5c0-3.6-2.7-6.8-6.8-7.8c-4.6-1.1-9.1,1.1-10.3,5.1
					C798.4,593.3,801.3,596.1,805.4,597z M807.3,590.1c1.1,0.3,1.9,1,1.8,1.6c-0.1,0.6-1.2,0.8-2.3,0.5c-1.1-0.3-1.9-0.9-1.8-1.5
					C805.1,590.1,806.2,589.9,807.3,590.1z"/>
			</g>
			<g>
				<path class="st6" d="M815.3,644.1c1-4.2-1.9-8.3-6.6-9.4c-4.7-1.1-9.4,1.3-10.4,5.5c-1,4.2,2.1,7.7,6.8,8.8
					C809.8,650.1,814.3,648.3,815.3,644.1z M806.8,642.2c-1.1-0.3-1.9-0.9-1.8-1.5c0.1-0.6,1.2-0.9,2.3-0.6c1.1,0.3,1.9,1,1.8,1.6
					C808.9,642.3,807.9,642.5,806.8,642.2z"/>
				<path class="st6" d="M815.3,644.1c1-4.2-1.9-8.3-6.6-9.4c-4.7-1.1-9.4,1.3-10.4,5.5c-1,4.2,2.1,7.7,6.8,8.8
					C809.8,650.1,814.3,648.3,815.3,644.1z M806.8,642.2c-1.1-0.3-1.9-0.9-1.8-1.5c0.1-0.6,1.2-0.9,2.3-0.6c1.1,0.3,1.9,1,1.8,1.6
					C808.9,642.3,807.9,642.5,806.8,642.2z"/>
				<path class="st7" d="M805.4,647c4.6,1.1,9-0.6,10.1-4.5c0-3.6-2.7-6.8-6.8-7.8c-4.6-1.1-9.1,1.1-10.3,5.1
					C798.4,643.3,801.3,646.1,805.4,647z M807.3,640.1c1.1,0.3,1.9,1,1.8,1.6c-0.1,0.6-1.2,0.8-2.3,0.5c-1.1-0.3-1.9-0.9-1.8-1.5
					C805.1,640.1,806.2,639.9,807.3,640.1z"/>
			</g>
			<g>
				<path class="st6" d="M815.3,695.1c1-4.2-1.9-8.3-6.6-9.4c-4.7-1.1-9.4,1.3-10.4,5.5c-1,4.2,2.1,7.7,6.8,8.8
					C809.8,701.1,814.3,699.3,815.3,695.1z M806.8,693.2c-1.1-0.3-1.9-0.9-1.8-1.5c0.1-0.6,1.2-0.9,2.3-0.6c1.1,0.3,1.9,1,1.8,1.6
					C808.9,693.3,807.9,693.5,806.8,693.2z"/>
				<path class="st6" d="M815.3,695.1c1-4.2-1.9-8.3-6.6-9.4c-4.7-1.1-9.4,1.3-10.4,5.5c-1,4.2,2.1,7.7,6.8,8.8
					C809.8,701.1,814.3,699.3,815.3,695.1z M806.8,693.2c-1.1-0.3-1.9-0.9-1.8-1.5c0.1-0.6,1.2-0.9,2.3-0.6c1.1,0.3,1.9,1,1.8,1.6
					C808.9,693.3,807.9,693.5,806.8,693.2z"/>
				<path class="st7" d="M805.4,698c4.6,1.1,9-0.6,10.1-4.5c0-3.6-2.7-6.8-6.8-7.8c-4.6-1.1-9.1,1.1-10.3,5.1
					C798.4,694.3,801.3,697.1,805.4,698z M807.3,691.1c1.1,0.3,1.9,1,1.8,1.6c-0.1,0.6-1.2,0.8-2.3,0.5c-1.1-0.3-1.9-0.9-1.8-1.5
					C805.1,691.1,806.2,690.9,807.3,691.1z"/>
			</g>
		</g>
	</g>
</g>
</svg>
