<?xml version="1.0" encoding="utf-8"?>
<!-- Generator: Adobe Illustrator 27.4.1, SVG Export Plug-In . SVG Version: 6.00 Build 0)  -->
<svg version="1.1" id="Bakery_Shop" xmlns="http://www.w3.org/2000/svg" xmlns:xlink="http://www.w3.org/1999/xlink" x="0px"
	 y="0px" viewBox="0 0 1920 1080" style="enable-background:new 0 0 1920 1080;" xml:space="preserve">
<style type="text/css">
	.st0{fill:#FFFFFF;}
	.st1{fill:#3E3E3F;}
	.st2{font-family:'FiraSans-Medium';}
	.st3{font-size:20px;}
	.st4{fill:none;}
	.st5{font-family:'FiraSans-ExtraLight';}
	.st6{font-size:16px;}
	.st7{letter-spacing:2;}
	.st8{letter-spacing:3;}
	.st9{letter-spacing:6;}
	.st10{letter-spacing:10;}
</style>
<g id="Feature_1_00000013187844883409730690000009348453673863610547_">
	<path class="st0" d="M1057.2,550.8c0,3.3-2.7,6-6,6h-298c-3.3,0-6-2.7-6-6v-273c0-3.3,2.7-6,6-6h298c3.3,0,6,2.7,6,6V550.8z"/>
	<text transform="matrix(1 0 0 1 870.9225 323.6116)" class="st1 st2 st3">Bakery</text>
	<rect x="772.9" y="350.6" class="st4" width="250.3" height="155.1"/>
	<text transform="matrix(1 0 0 1 772.8999 362.4561)"><tspan x="0" y="0" class="st1 st5 st6">Lorem</tspan><tspan x="44.6" y="0" class="st1 st5 st6 st7"> </tspan><tspan x="51.8" y="0" class="st1 st5 st6">ipsum</tspan><tspan x="95.2" y="0" class="st1 st5 st6 st7"> </tspan><tspan x="102.5" y="0" class="st1 st5 st6">dolor</tspan><tspan x="140.3" y="0" class="st1 st5 st6 st7"> </tspan><tspan x="147.6" y="0" class="st1 st5 st6">sit</tspan><tspan x="164.5" y="0" class="st1 st5 st6 st7"> </tspan><tspan x="171.8" y="0" class="st1 st5 st6">amet,</tspan><tspan x="210.8" y="0" class="st1 st5 st6 st7"> </tspan><tspan x="218.1" y="0" class="st1 st5 st6">con</tspan><tspan x="243.9" y="0" class="st1 st5 st6">-</tspan><tspan x="0" y="19.2" class="st1 st5 st6">sectetuer</tspan><tspan x="66.1" y="19.2" class="st1 st5 st6 st7"> </tspan><tspan x="72.7" y="19.2" class="st1 st5 st6">adipiscing</tspan><tspan x="144.2" y="19.2" class="st1 st5 st6 st7"> </tspan><tspan x="150.8" y="19.2" class="st1 st5 st6">elit,</tspan><tspan x="176.7" y="19.2" class="st1 st5 st6 st7"> </tspan><tspan x="183.3" y="19.2" class="st1 st5 st6">sed</tspan><tspan x="208.2" y="19.2" class="st1 st5 st6 st7"> </tspan><tspan x="214.8" y="19.2" class="st1 st5 st6">diam </tspan><tspan x="0" y="38.4" class="st1 st5 st6">nonummy</tspan><tspan x="71.4" y="38.4" class="st1 st5 st6 st7"> </tspan><tspan x="78.8" y="38.4" class="st1 st5 st6">nibh</tspan><tspan x="110.7" y="38.4" class="st1 st5 st6 st7"> </tspan><tspan x="118.1" y="38.4" class="st1 st5 st6">euismod</tspan><tspan x="179.2" y="38.4" class="st1 st5 st6 st7"> </tspan><tspan x="186.6" y="38.4" class="st1 st5 st6">tincidunt </tspan><tspan x="0" y="57.6" class="st1 st5 st6">ut</tspan><tspan x="14.6" y="57.6" class="st1 st5 st6 st8"> </tspan><tspan x="22.9" y="57.6" class="st1 st5 st6">laoreet</tspan><tspan x="73.4" y="57.6" class="st1 st5 st6 st8"> </tspan><tspan x="81.7" y="57.6" class="st1 st5 st6">dolore</tspan><tspan x="128.1" y="57.6" class="st1 st5 st6 st8"> </tspan><tspan x="136.4" y="57.6" class="st1 st5 st6">magna</tspan><tspan x="184.2" y="57.6" class="st1 st5 st6 st8"> </tspan><tspan x="192.5" y="57.6" class="st1 st5 st6">aliquam </tspan><tspan x="0" y="76.8" class="st1 st5 st6">erat</tspan><tspan x="28.3" y="76.8" class="st1 st5 st6"> </tspan><tspan x="33.3" y="76.8" class="st1 st5 st6">volutpat.</tspan><tspan x="95.1" y="76.8" class="st1 st5 st6"> </tspan><tspan x="100.1" y="76.8" class="st1 st5 st6">Nulla</tspan><tspan x="137.7" y="76.8" class="st1 st5 st6"> </tspan><tspan x="142.7" y="76.8" class="st1 st5 st6">facilisis</tspan><tspan x="195.6" y="76.8" class="st1 st5 st6"> </tspan><tspan x="200.6" y="76.8" class="st1 st5 st6">at</tspan><tspan x="214.4" y="76.8" class="st1 st5 st6"> </tspan><tspan x="219.5" y="76.8" class="st1 st5 st6">vero </tspan><tspan x="0" y="96" class="st1 st5 st6">eros</tspan><tspan x="30.7" y="96" class="st1 st5 st6 st9"> </tspan><tspan x="41.5" y="96" class="st1 st5 st6">et</tspan><tspan x="55.4" y="96" class="st1 st5 st6 st9"> </tspan><tspan x="66.1" y="96" class="st1 st5 st6">accumsan</tspan><tspan x="137.4" y="96" class="st1 st5 st6 st9"> </tspan><tspan x="148.1" y="96" class="st1 st5 st6">et</tspan><tspan x="162" y="96" class="st1 st5 st6 st9"> </tspan><tspan x="172.8" y="96" class="st1 st5 st6">iusto</tspan><tspan x="208" y="96" class="st1 st5 st6 st9"> </tspan><tspan x="218.7" y="96" class="st1 st5 st6">odio </tspan><tspan x="0" y="115.2" class="st1 st5 st6">dignissim</tspan><tspan x="67.3" y="115.2" class="st1 st5 st6"> </tspan><tspan x="71.1" y="115.2" class="st1 st5 st6">qui</tspan><tspan x="93.7" y="115.2" class="st1 st5 st6"> </tspan><tspan x="97.5" y="115.2" class="st1 st5 st6">blandit</tspan><tspan x="147.8" y="115.2" class="st1 st5 st6"> </tspan><tspan x="151.6" y="115.2" class="st1 st5 st6">praesent</tspan><tspan x="214" y="115.2" class="st1 st5 st6">  </tspan><tspan x="221.6" y="115.2" class="st1 st5 st6">del</tspan><tspan x="243.9" y="115.2" class="st1 st5 st6">-</tspan><tspan x="0" y="134.4" class="st1 st5 st6">enit</tspan><tspan x="27.4" y="134.4" class="st1 st5 st6 st10"> </tspan><tspan x="42.3" y="134.4" class="st1 st5 st6">augue</tspan><tspan x="85.8" y="134.4" class="st1 st5 st6 st10"> </tspan><tspan x="100.7" y="134.4" class="st1 st5 st6">duis</tspan><tspan x="130.6" y="134.4" class="st1 st5 st6 st10"> </tspan><tspan x="145.5" y="134.4" class="st1 st5 st6">dolore</tspan><tspan x="191.9" y="134.4" class="st1 st5 st6 st10"> </tspan><tspan x="206.8" y="134.4" class="st1 st5 st6">fugait. </tspan></text>
</g>
</svg>
