<?xml version="1.0" encoding="utf-8"?>
<!-- Generator: Adobe Illustrator 27.4.1, SVG Export Plug-In . SVG Version: 6.00 Build 0)  -->
<svg version="1.1" id="Coffee_Shop" xmlns="http://www.w3.org/2000/svg" xmlns:xlink="http://www.w3.org/1999/xlink" x="0px"
	 y="0px" viewBox="0 0 1920 1080" style="enable-background:new 0 0 1920 1080;" xml:space="preserve">
<style type="text/css">
	.st0{fill:#FFFFFF;}
	.st1{fill:#3E3E3F;}
	.st2{font-family:'FiraSans-Medium';}
	.st3{font-size:20px;}
	.st4{fill:none;}
	.st5{font-family:'FiraSans-ExtraLight';}
	.st6{font-size:16px;}
	.st7{letter-spacing:18;}
	.st8{letter-spacing:3;}
	.st9{letter-spacing:13;}
	.st10{letter-spacing:2;}
</style>
<g id="Shop">
	<g id="Feature_2">
		<path class="st0" d="M1098.5,683.4c0,3.3-2.7,6-6,6h-298c-3.3,0-6-2.7-6-6v-273c0-3.3,2.7-6,6-6h298c3.3,0,6,2.7,6,6V683.4z"/>
		<text transform="matrix(1 0 0 1 914.9227 456.8918)" class="st1 st2 st3">Coffee</text>
		<rect x="818.3" y="483.9" class="st4" width="250.3" height="132.2"/>
		<text transform="matrix(1 0 0 1 818.2797 497.3645)"><tspan x="0" y="0" class="st1 st5 st6">Vivamus</tspan><tspan x="58.8" y="0" class="st1 st5 st6 st7"> </tspan><tspan x="82.3" y="0" class="st1 st5 st6">consequat</tspan><tspan x="156.2" y="0" class="st1 st5 st6 st7"> </tspan><tspan x="179.7" y="0" class="st1 st5 st6">orci</tspan><tspan x="206.3" y="0" class="st1 st5 st6 st7"> </tspan><tspan x="229.8" y="0" class="st1 st5 st6">vel </tspan><tspan x="0" y="26" class="st1 st5 st6">porttitor</tspan><tspan x="59.5" y="26" class="st1 st5 st6 st8"> </tspan><tspan x="67.1" y="26" class="st1 st5 st6">suscipit.</tspan><tspan x="124.4" y="26" class="st1 st5 st6 st8"> </tspan><tspan x="132" y="26" class="st1 st5 st6">Nullam</tspan><tspan x="183.2" y="26" class="st1 st5 st6 st8"> </tspan><tspan x="190.9" y="26" class="st1 st5 st6">porttitor </tspan><tspan x="0" y="52" class="st1 st5 st6">malesuada</tspan><tspan x="77.8" y="52" class="st1 st5 st6 st9"> </tspan><tspan x="95.5" y="52" class="st1 st5 st6">dictum</tspan><tspan x="144.6" y="52" class="st1 st5 st6 st9"> </tspan><tspan x="162.3" y="52" class="st1 st5 st6">dui</tspan><tspan x="184.9" y="52" class="st1 st5 st6 st9"> </tspan><tspan x="202.6" y="52" class="st1 st5 st6">viverra </tspan><tspan x="0" y="78" class="st1 st5 st6">maximus.</tspan><tspan x="66.7" y="78" class="st1 st5 st6 st10"> </tspan><tspan x="73.4" y="78" class="st1 st5 st6">Aenean</tspan><tspan x="126.4" y="78" class="st1 st5 st6 st10"> </tspan><tspan x="133.1" y="78" class="st1 st5 st6">dictum</tspan><tspan x="182.2" y="78" class="st1 st5 st6 st10"> </tspan><tspan x="188.9" y="78" class="st1 st5 st6">dolor</tspan><tspan x="226.7" y="78" class="st1 st5 st6 st10"> </tspan><tspan x="233.4" y="78" class="st1 st5 st6">sit </tspan><tspan x="0" y="104" class="st1 st5 st6">amet</tspan><tspan x="36" y="104" class="st1 st5 st6 st8"> </tspan><tspan x="44.1" y="104" class="st1 st5 st6">malesuada</tspan><tspan x="121.9" y="104" class="st1 st5 st6 st8"> </tspan><tspan x="130" y="104" class="st1 st5 st6">aliquet</tspan><tspan x="179.6" y="104" class="st1 st5 st6 st8"> </tspan><tspan x="187.7" y="104" class="st1 st5 st6">porttitor.</tspan></text>
	</g>
</g>
</svg>
