<?xml version="1.0" encoding="utf-8"?>
<!-- Generator: Adobe Illustrator 27.4.1, SVG Export Plug-In . SVG Version: 6.00 Build 0)  -->
<svg version="1.1" id="Cup_Leaf" xmlns="http://www.w3.org/2000/svg" xmlns:xlink="http://www.w3.org/1999/xlink" x="0px" y="0px"
	 viewBox="0 0 1920 1080" style="enable-background:new 0 0 1920 1080;" xml:space="preserve">
<style type="text/css">
	.st0{fill:#EEE1D0;}
	.st1{fill:#3E3E3F;}
	.st2{font-family:'FiraSans-Light';}
	.st3{font-size:30px;}
	.st4{fill:none;stroke:#69442B;stroke-miterlimit:10;}
	.st5{font-size:16px;}
	.st6{fill:#6C3506;}
</style>
<g id="Menu">
	<g id="Silver">
		<path class="st0" d="M1145.7,734c0,3.3-2.7,6-6,6h-298c-3.3,0-6-2.7-6-6V296c0-3.3,2.7-6,6-6h298c3.3,0,6,2.7,6,6V734z"/>
		<text transform="matrix(1 0 0 1 948.8451 339.4624)" class="st1 st2 st3">Coffee</text>
		<line class="st4" x1="835.7" y1="369.5" x2="1145.7" y2="369.5"/>
		<g>
			<g>
				<text transform="matrix(1 0 0 1 915.7363 431.9363)" class="st1 st2 st5">Lorem ipsum dolor</text>
				<g>
					<path class="st6" d="M895.5,419.4c-0.4,0.5-0.7,0.9-1.1,1.3c-1.9,1.7-2.6,3.9-2.4,6.4c0.1,0.9,0.1,1.8-0.1,2.7
						c-0.2,1.6-1.2,2.8-2.5,3.7c-0.2,0.2-0.8,0.2-1,0c-1.5-0.6-2.3-1.9-2.3-3.4c-0.2-4.4,1.6-7.9,5.2-10.5
						C892.5,418.7,894.1,418.7,895.5,419.4z"/>
					<path class="st6" d="M890.1,434.2c0.6-0.5,1-0.9,1.4-1.2c1.5-1.4,2.1-3.1,1.7-5.1c-0.7-3.3,1-5.7,3.2-7.8
						c0.2-0.2,0.7-0.1,1,0.1c1.4,1.1,1.9,2.6,1.9,4.3c-0.1,3.8-1.7,6.9-4.9,9C893.2,434.2,891.9,434.6,890.1,434.2z"/>
				</g>
			</g>
			<g>
				<text transform="matrix(1 0 0 1 915.7363 481.9363)" class="st1 st2 st5">Sit amet consectetur</text>
				<g>
					<path class="st6" d="M894.9,468.8c-0.4,0.5-0.7,0.9-1.1,1.3c-1.9,1.7-2.6,3.9-2.4,6.4c0.1,0.9,0.1,1.8-0.1,2.7
						c-0.2,1.6-1.2,2.8-2.5,3.7c-0.2,0.2-0.8,0.2-1,0c-1.5-0.6-2.3-1.9-2.3-3.4c-0.2-4.4,1.6-7.9,5.2-10.5
						C891.9,468.1,893.5,468.1,894.9,468.8z"/>
					<path class="st6" d="M889.5,483.6c0.6-0.5,1-0.9,1.4-1.2c1.5-1.4,2.1-3.1,1.7-5.1c-0.7-3.3,1-5.7,3.2-7.8
						c0.2-0.2,0.7-0.1,1,0.1c1.4,1.1,1.9,2.6,1.9,4.3c-0.1,3.8-1.7,6.9-4.9,9C892.6,483.7,891.3,484,889.5,483.6z"/>
				</g>
			</g>
			<g>
				<g>
					<g>
						<path class="st1" d="M895.5,518.4c-0.4,0.5-0.7,0.9-1.1,1.3c-1.9,1.7-2.6,3.9-2.4,6.4c0.1,0.9,0.1,1.8-0.1,2.7
							c-0.2,1.6-1.2,2.8-2.5,3.7c-0.2,0.2-0.8,0.2-1,0c-1.5-0.6-2.3-1.9-2.3-3.4c-0.2-4.4,1.6-7.9,5.2-10.5
							C892.5,517.7,894.1,517.7,895.5,518.4z"/>
						<path class="st1" d="M890.1,533.2c0.6-0.5,1-0.9,1.4-1.2c1.5-1.4,2.1-3.1,1.7-5.1c-0.7-3.3,1-5.7,3.2-7.8
							c0.2-0.2,0.7-0.1,1,0.1c1.4,1.1,1.9,2.6,1.9,4.3c-0.1,3.8-1.7,6.9-4.9,9C893.2,533.2,891.9,533.6,890.1,533.2z"/>
					</g>
					<g>
						<text transform="matrix(1 0 0 1 915.7363 531.9363)" class="st1 st2 st5">Mauris nisl dui</text>
					</g>
				</g>
			</g>
			<g>
				<g>
					<g>
						<text transform="matrix(1 0 0 1 915.7363 581.9363)" class="st1 st2 st5">Viverra in porttitor vitae</text>
					</g>
				</g>
			</g>
			<g>
				<g>
					<g>
						<text transform="matrix(1 0 0 1 915.7363 631.9363)" class="st1 st2 st5">Integer vitae commodo</text>
					</g>
				</g>
			</g>
			<g>
				<g>
					<g>
						<text transform="matrix(1 0 0 1 915.7363 681.9363)" class="st1 st2 st5">Nullam malesuada dictum</text>
					</g>
				</g>
			</g>
		</g>
		<g>
			<path class="st6" d="M895.4,568.6c-0.4,0.5-0.7,0.9-1.1,1.3c-1.9,1.7-2.6,3.9-2.4,6.4c0.1,0.9,0.1,1.8-0.1,2.7
				c-0.2,1.6-1.2,2.8-2.5,3.7c-0.2,0.2-0.8,0.2-1,0c-1.5-0.6-2.3-1.9-2.3-3.4c-0.2-4.4,1.6-7.9,5.2-10.5
				C892.4,567.9,894,567.9,895.4,568.6z"/>
			<path class="st6" d="M890,583.4c0.6-0.5,1-0.9,1.4-1.2c1.5-1.4,2.1-3.1,1.7-5.1c-0.7-3.3,1-5.7,3.2-7.8c0.2-0.2,0.7-0.1,1,0.1
				c1.4,1.1,1.9,2.6,1.9,4.3c-0.1,3.8-1.7,6.9-4.9,9C893.1,583.4,891.8,583.8,890,583.4z"/>
		</g>
		<g>
			<path class="st6" d="M895.4,618.4c-0.4,0.5-0.7,0.9-1.1,1.3c-1.9,1.7-2.6,3.9-2.4,6.4c0.1,0.9,0.1,1.8-0.1,2.7
				c-0.2,1.6-1.2,2.8-2.5,3.7c-0.2,0.2-0.8,0.2-1,0c-1.5-0.6-2.3-1.9-2.3-3.4c-0.2-4.4,1.6-7.9,5.2-10.5
				C892.4,617.6,894,617.6,895.4,618.4z"/>
			<path class="st6" d="M890,633.2c0.6-0.5,1-0.9,1.4-1.2c1.5-1.4,2.1-3.1,1.7-5.1c-0.7-3.3,1-5.7,3.2-7.8c0.2-0.2,0.7-0.1,1,0.1
				c1.4,1.1,1.9,2.6,1.9,4.3c-0.1,3.8-1.7,6.9-4.9,9C893.1,633.2,891.8,633.5,890,633.2z"/>
		</g>
		<g>
			<path class="st6" d="M895.4,669c-0.4,0.5-0.7,0.9-1.1,1.3c-1.9,1.7-2.6,3.9-2.4,6.4c0.1,0.9,0.1,1.8-0.1,2.7
				c-0.2,1.6-1.2,2.8-2.5,3.7c-0.2,0.2-0.8,0.2-1,0c-1.5-0.6-2.3-1.9-2.3-3.4c-0.2-4.4,1.6-7.9,5.2-10.5
				C892.4,668.2,894,668.2,895.4,669z"/>
			<path class="st6" d="M890,683.8c0.6-0.5,1-0.9,1.4-1.2c1.5-1.4,2.1-3.1,1.7-5.1c-0.7-3.3,1-5.7,3.2-7.8c0.2-0.2,0.7-0.1,1,0.1
				c1.4,1.1,1.9,2.6,1.9,4.3c-0.1,3.8-1.7,6.9-4.9,9C893.1,683.8,891.8,684.1,890,683.8z"/>
		</g>
	</g>
</g>
</svg>
