<?xml version="1.0" encoding="utf-8"?>
<!-- Generator: Adobe Illustrator 27.4.1, SVG Export Plug-In . SVG Version: 6.00 Build 0)  -->
<svg version="1.1" id="French_Butter_Croissant" xmlns="http://www.w3.org/2000/svg" xmlns:xlink="http://www.w3.org/1999/xlink"
	 x="0px" y="0px" viewBox="0 0 1920 1080" style="enable-background:new 0 0 1920 1080;" xml:space="preserve">
<style type="text/css">
	.st0{fill:#FFFFFF;}
	.st1{fill:#3E3E3F;}
	.st2{font-family:'FiraSans-Light';}
	.st3{font-size:26px;}
</style>
<g id="French_Butter_Croissant_00000090269351918728656330000016778700001725076912_">
	
		<image style="overflow:visible;opacity:0.84;" width="341" height="437" xlink:href="5DE7DE4CC731F4A3.png"  transform="matrix(1 0 0 1 741 303)">
	</image>
	<g>
		<g>
			<g id="Platinum_00000114053528330921290640000018099616985712659358_">
				<path class="st0" d="M1060.7,725h-298c-3.3,0-6-2.7-6-6V324c0-3.3,2.7-6,6-6h298c3.3,0,6,2.7,6,6V719
					C1066.7,722.3,1064,725,1060.7,725z"/>
			</g>
			<text transform="matrix(1 0 0 1 775.5099 616.0428)" class="st1 st2 st3">French Butter Croissant</text>
			<text transform="matrix(1 0 0 1 783.7365 695.8531)" class="st1 st2 st3">$2.45</text>
			
				<g id="Image_preview_icon._Picture_placeholder_for_website_or_ui-ux_design._Vector_illustration._00000065794133465669325590000005749124766102966413_">
				<g>
					<defs>
						<rect id="SVGID_1_" x="808.6" y="364.6" width="202.3" height="202.3"/>
					</defs>
					<clipPath id="SVGID_00000114070970721483882650000010280897374420559790_">
						<use xlink:href="#SVGID_1_"  style="overflow:visible;"/>
					</clipPath>
					<g style="clip-path:url(#SVGID_00000114070970721483882650000010280897374420559790_);">
						
							<image style="overflow:visible;" width="1000" height="1000" xlink:href="5DE7DE4CC731F4A1.jpg"  transform="matrix(0.2024 0 0 0.2024 808.5546 364.6115)">
						</image>
					</g>
				</g>
			</g>
		</g>
	</g>
</g>
</svg>
