<?xml version="1.0" encoding="utf-8"?>
<!-- Generator: Adobe Illustrator 27.4.1, SVG Export Plug-In . SVG Version: 6.00 Build 0)  -->
<svg version="1.1" id="Cup_Leaf" xmlns="http://www.w3.org/2000/svg" xmlns:xlink="http://www.w3.org/1999/xlink" x="0px" y="0px"
	 viewBox="0 0 1920 1080" style="enable-background:new 0 0 1920 1080;" xml:space="preserve">
<style type="text/css">
	.st0{fill:#FFFFFF;}
	.st1{fill:#3E3E3F;}
	.st2{font-family:'FiraSans-Light';}
	.st3{font-size:30px;}
	.st4{fill:none;stroke:#69442B;stroke-miterlimit:10;}
	.st5{font-size:16px;}
	.st6{fill:#4D160E;}
	.st7{fill:#720A0A;}
</style>
<g id="Menu">
	<g id="Gold">
		<path class="st0" d="M1103.3,737.1c0,3.3-2.7,6-6,6h-298c-3.3,0-6-2.7-6-6v-438c0-3.3,2.7-6,6-6h298c3.3,0,6,2.7,6,6V737.1z"/>
		<text transform="matrix(1 0 0 1 887.8907 342.622)" class="st1 st2 st3">Hot Coco</text>
		<line class="st4" x1="793.3" y1="372.6" x2="1103.3" y2="372.6"/>
		<g>
			<g>
				<text transform="matrix(1 0 0 1 873.277 435.096)" class="st1 st2 st5">Lorem ipsum dolor</text>
				<g>
					<g>
						<g>
							<path class="st6" d="M855.4,426.6c0-0.1,0-0.2-0.1-0.3c-0.2-0.9-0.5-1.8-1.1-2.4c0,0-0.1-0.1-0.1-0.1c-0.4-0.5-0.9-0.8-1.5-1
								l-0.2-0.1c-0.1,0-0.1,0-0.2,0h0c0,0-0.1,0-0.1,0c-0.4-0.1-0.8-0.1-1.2,0c-0.5,0.1-1,0.2-1.4,0.5c-0.1,0-0.1,0.1-0.2,0.1
								c-1.5,0.8-2.8,2.5-3.5,4.6c-0.5,1.4-0.6,2.8-0.4,4c0,0.1,0,0.2,0.1,0.3c0.2,1,0.5,1.9,1.1,2.6c0,0,0.1,0.1,0.1,0.1
								c0.3,0.3,0.5,0.5,0.9,0.7c0.1,0,0.1,0.1,0.2,0.1c0.2,0.1,0.3,0.1,0.5,0.2c0,0,0,0,0.1,0c0,0,0.1,0,0.2,0
								c0.1,0,0.2,0.1,0.3,0.1c2.4,0.4,5.1-1.8,6.2-5.2c0.1-0.4,0.3-0.9,0.3-1.3c0-0.1,0-0.1,0-0.2
								C855.5,428.3,855.5,427.4,855.4,426.6z"/>
						</g>
					</g>
					<g>
						<g>
							<path class="st7" d="M854.2,426.6c0-0.1,0-0.2-0.1-0.3c-0.1-0.4-0.2-0.7-0.3-1.1c0,0,0,0,0,0c0-0.1-0.1-0.1-0.1-0.2
								c0,0,0,0,0,0c-0.4-0.9-0.9-1.6-1.7-2c0,0-0.1,0-0.1-0.1c-0.2-0.1-0.3-0.2-0.5-0.2l-0.2-0.1c-0.1,0-0.3-0.1-0.4-0.1
								c-0.5,0.1-1,0.2-1.4,0.5c-0.1,0-0.1,0.1-0.2,0.1c-1.5,0.8-2.8,2.5-3.5,4.6c-0.5,1.4-0.6,2.8-0.4,4c0,0.1,0,0.2,0.1,0.3
								c0.2,1,0.5,1.9,1.1,2.6c0,0,0.1,0.1,0.1,0.1c0.3,0.3,0.5,0.5,0.9,0.7c0.1,0,0.1,0.1,0.2,0.1c0.2,0.1,0.3,0.1,0.5,0.2
								c0,0,0,0,0.1,0c0,0,0.1,0,0.2,0c0.1,0,0.2,0.1,0.3,0.1c2.1-0.3,4.1-2.3,5.1-5.2c0.1-0.2,0.1-0.3,0.1-0.5c0-0.1,0-0.1,0.1-0.2
								C854.4,428.8,854.4,427.6,854.2,426.6z"/>
						</g>
					</g>
					<g>
						<path class="st6" d="M849.5,423c-0.1,0-0.1,0.1-0.2,0.1c0,0.3-0.1,0.6-0.2,0.9c-0.2,0.6-0.5,1.2-0.8,1.8
							c-0.1,0.2-0.2,0.4-0.3,0.6c-0.7,1.5-1.2,3-1.3,4.5c-0.1,1.6,0.1,3.2,0.8,4.6c0.1,0,0.1,0.1,0.2,0.1c0,0,0-0.1-0.1-0.1
							c-0.6-1.4-0.9-2.9-0.8-4.6c0.1-1.5,0.5-3,1.3-4.5c0.1-0.2,0.2-0.4,0.3-0.6c0.3-0.6,0.6-1.2,0.8-1.8
							C849.4,423.7,849.5,423.4,849.5,423z"/>
					</g>
					<g>
						<path class="st6" d="M855.3,429.3c-0.4,0.3-0.8,0.5-1.3,0.8c-0.3,0.2-0.6,0.3-0.9,0.5c-0.2,0.1-0.4,0.2-0.6,0.3
							c-0.7,0.4-1.5,0.8-2.2,1.3c-1,0.7-1.7,1.6-2,2.5c-0.1,0.4-0.2,0.8-0.1,1.2c0,0,0.1,0,0.2,0c-0.1-0.4,0-0.8,0.1-1.2
							c0.3-0.9,1-1.7,1.9-2.4c0.7-0.5,1.4-0.9,2.2-1.3c0.2-0.1,0.4-0.2,0.6-0.3c0.3-0.1,0.5-0.3,0.7-0.4c0.5-0.3,0.9-0.5,1.3-0.8
							C855.3,429.4,855.3,429.3,855.3,429.3z"/>
					</g>
					<g>
						<path class="st6" d="M854.2,423.9c0,0-0.1-0.1-0.1-0.1c-0.1,0.4-0.2,0.8-0.3,1.2c0,0,0,0,0,0c-0.3,0.9-0.6,1.8-0.9,2.6
							c-0.3,0.6-0.6,1.3-1.1,1.8c-0.4,0.5-1,0.8-1.7,1c-0.4,0.1-0.6,0.1-0.8,0c-0.3-0.2-0.3-0.7-0.3-1c0.2-1.5,1-2.8,1.8-4
							c0.2-0.3,0.3-0.5,0.5-0.8c0.3-0.5,0.6-1,0.8-1.6c0.1-0.1,0.1-0.3,0.2-0.4c0,0-0.1,0-0.1,0c0,0.1-0.1,0.2-0.1,0.3
							c-0.2,0.6-0.5,1.1-0.8,1.6c-0.2,0.3-0.3,0.5-0.5,0.8c-0.8,1.3-1.6,2.6-1.8,4.1c-0.1,0.4-0.1,0.9,0.3,1.2
							c0.2,0.1,0.5,0.2,0.9,0.1c0.7-0.2,1.3-0.5,1.7-1.1c0.5-0.5,0.8-1.2,1.1-1.9c0.4-0.8,0.6-1.7,0.9-2.5v0
							C854,424.7,854.1,424.3,854.2,423.9z"/>
					</g>
				</g>
				<g>
					<g>
						<g>
							<path class="st6" d="M855.3,476c0-0.1,0-0.2-0.1-0.3c-0.2-0.9-0.5-1.8-1.1-2.4c0,0-0.1-0.1-0.1-0.1c-0.4-0.5-0.9-0.8-1.5-1
								l-0.2-0.1c-0.1,0-0.1,0-0.2,0l0,0c0,0-0.1,0-0.1,0c-0.4-0.1-0.8-0.1-1.2,0c-0.5,0.1-1,0.2-1.4,0.5c-0.1,0-0.1,0.1-0.2,0.1
								c-1.5,0.8-2.8,2.5-3.5,4.6c-0.5,1.4-0.6,2.8-0.4,4c0,0.1,0,0.2,0.1,0.3c0.2,1,0.5,1.9,1.1,2.6c0,0,0.1,0.1,0.1,0.1
								c0.3,0.3,0.5,0.5,0.9,0.7c0.1,0,0.1,0.1,0.2,0.1c0.2,0.1,0.3,0.1,0.5,0.2c0,0,0,0,0.1,0c0,0,0.1,0,0.2,0
								c0.1,0,0.2,0.1,0.3,0.1c2.4,0.4,5.1-1.8,6.2-5.2c0.1-0.4,0.3-0.9,0.3-1.3c0-0.1,0-0.1,0-0.2
								C855.5,477.8,855.5,476.9,855.3,476z"/>
						</g>
					</g>
					<g>
						<g>
							<path class="st7" d="M854.2,476c0-0.1,0-0.2-0.1-0.3c-0.1-0.4-0.2-0.7-0.3-1.1c0,0,0,0,0,0c0-0.1-0.1-0.1-0.1-0.2
								c0,0,0,0,0,0c-0.4-0.9-0.9-1.6-1.7-2c0,0-0.1,0-0.1-0.1c-0.2-0.1-0.3-0.2-0.5-0.2l-0.2-0.1c-0.1,0-0.3-0.1-0.4-0.1
								c-0.5,0.1-1,0.2-1.4,0.5c-0.1,0-0.1,0.1-0.2,0.1c-1.5,0.8-2.8,2.5-3.5,4.6c-0.5,1.4-0.6,2.8-0.4,4c0,0.1,0,0.2,0.1,0.3
								c0.2,1,0.5,1.9,1.1,2.6c0,0,0.1,0.1,0.1,0.1c0.3,0.3,0.5,0.5,0.9,0.7c0.1,0,0.1,0.1,0.2,0.1c0.2,0.1,0.3,0.1,0.5,0.2
								c0,0,0,0,0.1,0c0,0,0.1,0,0.2,0c0.1,0,0.2,0.1,0.3,0.1c2.1-0.3,4.1-2.3,5.1-5.2c0.1-0.2,0.1-0.3,0.1-0.5c0-0.1,0-0.1,0.1-0.2
								C854.3,478.3,854.4,477.1,854.2,476z"/>
						</g>
					</g>
					<g>
						<path class="st6" d="M849.5,472.5c-0.1,0-0.1,0.1-0.2,0.1c0,0.3-0.1,0.6-0.2,0.9c-0.2,0.6-0.5,1.2-0.8,1.8
							c-0.1,0.2-0.2,0.4-0.3,0.6c-0.7,1.5-1.2,3-1.3,4.5c-0.1,1.6,0.1,3.2,0.8,4.6c0.1,0,0.1,0.1,0.2,0.1c0,0,0-0.1-0.1-0.1
							c-0.6-1.4-0.9-2.9-0.8-4.6c0.1-1.5,0.5-3,1.3-4.5c0.1-0.2,0.2-0.4,0.3-0.6c0.3-0.6,0.6-1.2,0.8-1.8
							C849.4,473.2,849.5,472.9,849.5,472.5z"/>
					</g>
					<g>
						<path class="st6" d="M855.3,478.7c-0.4,0.3-0.8,0.5-1.3,0.8c-0.3,0.2-0.6,0.3-0.9,0.5c-0.2,0.1-0.4,0.2-0.6,0.3
							c-0.7,0.4-1.5,0.8-2.2,1.3c-1,0.7-1.7,1.6-2,2.5c-0.1,0.4-0.2,0.8-0.1,1.2c0,0,0.1,0,0.2,0c-0.1-0.4,0-0.8,0.1-1.2
							c0.3-0.9,1-1.7,1.9-2.4c0.7-0.5,1.4-0.9,2.2-1.3c0.2-0.1,0.4-0.2,0.6-0.3c0.3-0.1,0.5-0.3,0.7-0.4c0.5-0.3,0.9-0.5,1.3-0.8
							C855.3,478.9,855.3,478.8,855.3,478.7z"/>
					</g>
					<g>
						<path class="st6" d="M854.2,473.3c0,0-0.1-0.1-0.1-0.1c-0.1,0.4-0.2,0.8-0.3,1.2c0,0,0,0,0,0c-0.3,0.9-0.6,1.8-0.9,2.6
							c-0.3,0.6-0.6,1.3-1.1,1.8c-0.4,0.5-1,0.8-1.7,1c-0.4,0.1-0.6,0.1-0.8,0c-0.3-0.2-0.3-0.7-0.3-1c0.2-1.5,1-2.8,1.8-4
							c0.2-0.3,0.3-0.5,0.5-0.8c0.3-0.5,0.6-1,0.8-1.6c0.1-0.1,0.1-0.3,0.2-0.4c0,0-0.1,0-0.1,0c0,0.1-0.1,0.2-0.1,0.3
							c-0.2,0.6-0.5,1.1-0.8,1.6c-0.2,0.3-0.3,0.5-0.5,0.8c-0.8,1.3-1.6,2.6-1.8,4.1c-0.1,0.4-0.1,0.9,0.3,1.2
							c0.2,0.1,0.5,0.2,0.9,0.1c0.7-0.2,1.3-0.5,1.7-1.1c0.5-0.5,0.8-1.2,1.1-1.9c0.4-0.8,0.6-1.7,0.9-2.5l0,0
							C854,474.2,854.1,473.8,854.2,473.3z"/>
					</g>
				</g>
				<g>
					<g>
						<g>
							<path class="st6" d="M855.1,577.1c0-0.1,0-0.2-0.1-0.3c-0.2-0.9-0.5-1.8-1.1-2.4c0,0-0.1-0.1-0.1-0.1c-0.4-0.5-0.9-0.8-1.5-1
								l-0.2-0.1c-0.1,0-0.1,0-0.2,0h0c0,0-0.1,0-0.1,0c-0.4-0.1-0.8-0.1-1.2,0c-0.5,0.1-1,0.2-1.4,0.5c-0.1,0-0.1,0.1-0.2,0.1
								c-1.5,0.8-2.8,2.5-3.5,4.6c-0.5,1.4-0.6,2.8-0.4,4c0,0.1,0,0.2,0.1,0.3c0.2,1,0.5,1.9,1.1,2.6c0,0,0.1,0.1,0.1,0.1
								c0.3,0.3,0.5,0.5,0.9,0.7c0.1,0,0.1,0.1,0.2,0.1c0.2,0.1,0.3,0.1,0.5,0.2c0,0,0,0,0.1,0c0,0,0.1,0,0.2,0
								c0.1,0,0.2,0.1,0.3,0.1c2.4,0.4,5.1-1.8,6.2-5.2c0.1-0.4,0.3-0.9,0.3-1.3c0-0.1,0-0.1,0-0.2
								C855.3,578.8,855.3,577.9,855.1,577.1z"/>
						</g>
					</g>
					<g>
						<g>
							<path class="st7" d="M854,577.1c0-0.1,0-0.2-0.1-0.3c-0.1-0.4-0.2-0.7-0.3-1.1c0,0,0,0,0,0c0-0.1-0.1-0.1-0.1-0.2
								c0,0,0,0,0,0c-0.4-0.9-0.9-1.6-1.7-2c0,0-0.1,0-0.1-0.1c-0.2-0.1-0.3-0.2-0.5-0.2l-0.2-0.1c-0.1,0-0.3-0.1-0.4-0.1
								c-0.5,0.1-1,0.2-1.4,0.5c-0.1,0-0.1,0.1-0.2,0.1c-1.5,0.8-2.8,2.5-3.5,4.6c-0.5,1.4-0.6,2.8-0.4,4c0,0.1,0,0.2,0.1,0.3
								c0.2,1,0.5,1.9,1.1,2.6c0,0,0.1,0.1,0.1,0.1c0.3,0.3,0.5,0.5,0.9,0.7c0.1,0,0.1,0.1,0.2,0.1c0.2,0.1,0.3,0.1,0.5,0.2
								c0,0,0,0,0.1,0c0,0,0.1,0,0.2,0c0.1,0,0.2,0.1,0.3,0.1c2.1-0.3,4.1-2.3,5.1-5.2c0.1-0.2,0.1-0.3,0.1-0.5c0-0.1,0-0.1,0.1-0.2
								C854.1,579.4,854.2,578.2,854,577.1z"/>
						</g>
					</g>
					<g>
						<path class="st6" d="M849.3,573.6c-0.1,0-0.1,0.1-0.2,0.1c0,0.3-0.1,0.6-0.2,0.9c-0.2,0.6-0.5,1.2-0.8,1.8
							c-0.1,0.2-0.2,0.4-0.3,0.6c-0.7,1.5-1.2,3-1.3,4.5c-0.1,1.6,0.1,3.2,0.8,4.6c0.1,0,0.1,0.1,0.2,0.1c0,0,0-0.1-0.1-0.1
							c-0.6-1.4-0.9-2.9-0.8-4.6c0.1-1.5,0.5-3,1.3-4.5c0.1-0.2,0.2-0.4,0.3-0.6c0.3-0.6,0.6-1.2,0.8-1.8
							C849.2,574.3,849.3,573.9,849.3,573.6z"/>
					</g>
					<g>
						<path class="st6" d="M855.1,579.8c-0.4,0.3-0.8,0.5-1.3,0.8c-0.3,0.2-0.6,0.3-0.9,0.5c-0.2,0.1-0.4,0.2-0.6,0.3
							c-0.7,0.4-1.5,0.8-2.2,1.3c-1,0.7-1.7,1.6-2,2.5c-0.1,0.4-0.2,0.8-0.1,1.2c0,0,0.1,0,0.2,0c-0.1-0.4,0-0.8,0.1-1.2
							c0.3-0.9,1-1.7,1.9-2.4c0.7-0.5,1.4-0.9,2.2-1.3c0.2-0.1,0.4-0.2,0.6-0.3c0.3-0.1,0.5-0.3,0.7-0.4c0.5-0.3,0.9-0.5,1.3-0.8
							C855.1,579.9,855.1,579.9,855.1,579.8z"/>
					</g>
					<g>
						<path class="st6" d="M854,574.4c0,0-0.1-0.1-0.1-0.1c-0.1,0.4-0.2,0.8-0.3,1.2c0,0,0,0,0,0c-0.3,0.9-0.6,1.8-0.9,2.6
							c-0.3,0.6-0.6,1.3-1.1,1.8c-0.4,0.5-1,0.8-1.7,1c-0.4,0.1-0.6,0.1-0.8,0c-0.3-0.2-0.3-0.7-0.3-1c0.2-1.5,1-2.8,1.8-4
							c0.2-0.3,0.3-0.5,0.5-0.8c0.3-0.5,0.6-1,0.8-1.6c0.1-0.1,0.1-0.3,0.2-0.4c0,0-0.1,0-0.1,0c0,0.1-0.1,0.2-0.1,0.3
							c-0.2,0.6-0.5,1.1-0.8,1.6c-0.2,0.3-0.3,0.5-0.5,0.8c-0.8,1.3-1.6,2.6-1.8,4.1c-0.1,0.4-0.1,0.9,0.3,1.2
							c0.2,0.1,0.5,0.2,0.9,0.1c0.7-0.2,1.3-0.5,1.7-1.1c0.5-0.5,0.8-1.2,1.1-1.9c0.4-0.8,0.6-1.7,0.9-2.5l0,0
							C853.8,575.3,853.9,574.8,854,574.4z"/>
					</g>
				</g>
				<g>
					<g>
						<g>
							<path class="st6" d="M855.5,627.1c0-0.1,0-0.2-0.1-0.3c-0.2-0.9-0.5-1.8-1.1-2.4c0,0-0.1-0.1-0.1-0.1c-0.4-0.5-0.9-0.8-1.5-1
								l-0.2-0.1c-0.1,0-0.1,0-0.2,0h0c0,0-0.1,0-0.1,0c-0.4-0.1-0.8-0.1-1.2,0c-0.5,0.1-1,0.2-1.4,0.5c-0.1,0-0.1,0.1-0.2,0.1
								c-1.5,0.8-2.8,2.5-3.5,4.6c-0.5,1.4-0.6,2.8-0.4,4c0,0.1,0,0.2,0.1,0.3c0.2,1,0.5,1.9,1.1,2.6c0,0,0.1,0.1,0.1,0.1
								c0.3,0.3,0.5,0.5,0.9,0.7c0.1,0,0.1,0.1,0.2,0.1c0.2,0.1,0.3,0.1,0.5,0.2c0,0,0,0,0.1,0c0,0,0.1,0,0.2,0
								c0.1,0,0.2,0.1,0.3,0.1c2.4,0.4,5.1-1.8,6.2-5.2c0.1-0.4,0.3-0.9,0.3-1.3c0-0.1,0-0.1,0-0.2
								C855.6,628.8,855.6,627.9,855.5,627.1z"/>
						</g>
					</g>
					<g>
						<g>
							<path class="st7" d="M854.3,627.1c0-0.1,0-0.2-0.1-0.3c-0.1-0.4-0.2-0.7-0.3-1.1c0,0,0,0,0,0c0-0.1-0.1-0.1-0.1-0.2
								c0,0,0,0,0,0c-0.4-0.9-0.9-1.6-1.7-2c0,0-0.1,0-0.1-0.1c-0.2-0.1-0.3-0.2-0.5-0.2l-0.2-0.1c-0.1,0-0.3-0.1-0.4-0.1
								c-0.5,0.1-1,0.2-1.4,0.5c-0.1,0-0.1,0.1-0.2,0.1c-1.5,0.8-2.8,2.5-3.5,4.6c-0.5,1.4-0.6,2.8-0.4,4c0,0.1,0,0.2,0.1,0.3
								c0.2,1,0.5,1.9,1.1,2.6c0,0,0.1,0.1,0.1,0.1c0.3,0.3,0.5,0.5,0.9,0.7c0.1,0,0.1,0.1,0.2,0.1c0.2,0.1,0.3,0.1,0.5,0.2
								c0,0,0,0,0.1,0c0,0,0.1,0,0.2,0c0.1,0,0.2,0.1,0.3,0.1c2.1-0.3,4.1-2.3,5.1-5.2c0.1-0.2,0.1-0.3,0.1-0.5c0-0.1,0-0.1,0.1-0.2
								C854.5,629.4,854.5,628.2,854.3,627.1z"/>
						</g>
					</g>
					<g>
						<path class="st6" d="M849.6,623.6c-0.1,0-0.1,0.1-0.2,0.1c0,0.3-0.1,0.6-0.2,0.9c-0.2,0.6-0.5,1.2-0.8,1.8
							c-0.1,0.2-0.2,0.4-0.3,0.6c-0.7,1.5-1.2,3-1.3,4.5c-0.1,1.6,0.1,3.2,0.8,4.6c0.1,0,0.1,0.1,0.2,0.1c0,0,0-0.1-0.1-0.1
							c-0.6-1.4-0.9-2.9-0.8-4.6c0.1-1.5,0.5-3,1.3-4.5c0.1-0.2,0.2-0.4,0.3-0.6c0.3-0.6,0.6-1.2,0.8-1.8
							C849.5,624.3,849.6,623.9,849.6,623.6z"/>
					</g>
					<g>
						<path class="st6" d="M855.4,629.8c-0.4,0.3-0.8,0.5-1.3,0.8c-0.3,0.2-0.6,0.3-0.9,0.5c-0.2,0.1-0.4,0.2-0.6,0.3
							c-0.7,0.4-1.5,0.8-2.2,1.3c-1,0.7-1.7,1.6-2,2.5c-0.1,0.4-0.2,0.8-0.1,1.2c0,0,0.1,0,0.2,0c-0.1-0.4,0-0.8,0.1-1.2
							c0.3-0.9,1-1.7,1.9-2.4c0.7-0.5,1.4-0.9,2.2-1.3c0.2-0.1,0.4-0.2,0.6-0.3c0.3-0.1,0.5-0.3,0.7-0.4c0.5-0.3,0.9-0.5,1.3-0.8
							C855.4,629.9,855.4,629.9,855.4,629.8z"/>
					</g>
					<g>
						<path class="st6" d="M854.3,624.4c0,0-0.1-0.1-0.1-0.1c-0.1,0.4-0.2,0.8-0.3,1.2c0,0,0,0,0,0c-0.3,0.9-0.6,1.8-0.9,2.6
							c-0.3,0.6-0.6,1.3-1.1,1.8c-0.4,0.5-1,0.8-1.7,1c-0.4,0.1-0.6,0.1-0.8,0c-0.3-0.2-0.3-0.7-0.3-1c0.2-1.5,1-2.8,1.8-4
							c0.2-0.3,0.3-0.5,0.5-0.8c0.3-0.5,0.6-1,0.8-1.6c0.1-0.1,0.1-0.3,0.2-0.4c0,0-0.1,0-0.1,0c0,0.1-0.1,0.2-0.1,0.3
							c-0.2,0.6-0.5,1.1-0.8,1.6c-0.2,0.3-0.3,0.5-0.5,0.8c-0.8,1.3-1.6,2.6-1.8,4.1c-0.1,0.4-0.1,0.9,0.3,1.2
							c0.2,0.1,0.5,0.2,0.9,0.1c0.7-0.2,1.3-0.5,1.7-1.1c0.5-0.5,0.8-1.2,1.1-1.9c0.4-0.8,0.6-1.7,0.9-2.5l0,0
							C854.1,625.3,854.2,624.8,854.3,624.4z"/>
					</g>
				</g>
				<g>
					<g>
						<g>
							<path class="st6" d="M855.1,677.1c0-0.1,0-0.2-0.1-0.3c-0.2-0.9-0.5-1.8-1.1-2.4c0,0-0.1-0.1-0.1-0.1c-0.4-0.5-0.9-0.8-1.5-1
								l-0.2-0.1c-0.1,0-0.1,0-0.2,0h0c0,0-0.1,0-0.1,0c-0.4-0.1-0.8-0.1-1.2,0c-0.5,0.1-1,0.2-1.4,0.5c-0.1,0-0.1,0.1-0.2,0.1
								c-1.5,0.8-2.8,2.5-3.5,4.6c-0.5,1.4-0.6,2.8-0.4,4c0,0.1,0,0.2,0.1,0.3c0.2,1,0.5,1.9,1.1,2.6c0,0,0.1,0.1,0.1,0.1
								c0.3,0.3,0.5,0.5,0.9,0.7c0.1,0,0.1,0.1,0.2,0.1c0.2,0.1,0.3,0.1,0.5,0.2c0,0,0,0,0.1,0c0,0,0.1,0,0.2,0
								c0.1,0,0.2,0.1,0.3,0.1c2.4,0.4,5.1-1.8,6.2-5.2c0.1-0.4,0.3-0.9,0.3-1.3c0-0.1,0-0.1,0-0.2
								C855.3,678.8,855.3,677.9,855.1,677.1z"/>
						</g>
					</g>
					<g>
						<g>
							<path class="st7" d="M854,677.1c0-0.1,0-0.2-0.1-0.3c-0.1-0.4-0.2-0.7-0.3-1.1c0,0,0,0,0,0c0-0.1-0.1-0.1-0.1-0.2
								c0,0,0,0,0,0c-0.4-0.9-0.9-1.6-1.7-2c0,0-0.1,0-0.1-0.1c-0.2-0.1-0.3-0.2-0.5-0.2l-0.2-0.1c-0.1,0-0.3-0.1-0.4-0.1
								c-0.5,0.1-1,0.2-1.4,0.5c-0.1,0-0.1,0.1-0.2,0.1c-1.5,0.8-2.8,2.5-3.5,4.6c-0.5,1.4-0.6,2.8-0.4,4c0,0.1,0,0.2,0.1,0.3
								c0.2,1,0.5,1.9,1.1,2.6c0,0,0.1,0.1,0.1,0.1c0.3,0.3,0.5,0.5,0.9,0.7c0.1,0,0.1,0.1,0.2,0.1c0.2,0.1,0.3,0.1,0.5,0.2
								c0,0,0,0,0.1,0c0,0,0.1,0,0.2,0c0.1,0,0.2,0.1,0.3,0.1c2.1-0.3,4.1-2.3,5.1-5.2c0.1-0.2,0.1-0.3,0.1-0.5c0-0.1,0-0.1,0.1-0.2
								C854.1,679.4,854.2,678.2,854,677.1z"/>
						</g>
					</g>
					<g>
						<path class="st6" d="M849.3,673.6c-0.1,0-0.1,0.1-0.2,0.1c0,0.3-0.1,0.6-0.2,0.9c-0.2,0.6-0.5,1.2-0.8,1.8
							c-0.1,0.2-0.2,0.4-0.3,0.6c-0.7,1.5-1.2,3-1.3,4.5c-0.1,1.6,0.1,3.2,0.8,4.6c0.1,0,0.1,0.1,0.2,0.1c0,0,0-0.1-0.1-0.1
							c-0.6-1.4-0.9-2.9-0.8-4.6c0.1-1.5,0.5-3,1.3-4.5c0.1-0.2,0.2-0.4,0.3-0.6c0.3-0.6,0.6-1.2,0.8-1.8
							C849.2,674.3,849.3,673.9,849.3,673.6z"/>
					</g>
					<g>
						<path class="st6" d="M855.1,679.8c-0.4,0.3-0.8,0.5-1.3,0.8c-0.3,0.2-0.6,0.3-0.9,0.5c-0.2,0.1-0.4,0.2-0.6,0.3
							c-0.7,0.4-1.5,0.8-2.2,1.3c-1,0.7-1.7,1.6-2,2.5c-0.1,0.4-0.2,0.8-0.1,1.2c0,0,0.1,0,0.2,0c-0.1-0.4,0-0.8,0.1-1.2
							c0.3-0.9,1-1.7,1.9-2.4c0.7-0.5,1.4-0.9,2.2-1.3c0.2-0.1,0.4-0.2,0.6-0.3c0.3-0.1,0.5-0.3,0.7-0.4c0.5-0.3,0.9-0.5,1.3-0.8
							C855.1,679.9,855.1,679.9,855.1,679.8z"/>
					</g>
					<g>
						<path class="st6" d="M854,674.4c0,0-0.1-0.1-0.1-0.1c-0.1,0.4-0.2,0.8-0.3,1.2c0,0,0,0,0,0c-0.3,0.9-0.6,1.8-0.9,2.6
							c-0.3,0.6-0.6,1.3-1.1,1.8c-0.4,0.5-1,0.8-1.7,1c-0.4,0.1-0.6,0.1-0.8,0c-0.3-0.2-0.3-0.7-0.3-1c0.2-1.5,1-2.8,1.8-4
							c0.2-0.3,0.3-0.5,0.5-0.8c0.3-0.5,0.6-1,0.8-1.6c0.1-0.1,0.1-0.3,0.2-0.4c0,0-0.1,0-0.1,0c0,0.1-0.1,0.2-0.1,0.3
							c-0.2,0.6-0.5,1.1-0.8,1.6c-0.2,0.3-0.3,0.5-0.5,0.8c-0.8,1.3-1.6,2.6-1.8,4.1c-0.1,0.4-0.1,0.9,0.3,1.2
							c0.2,0.1,0.5,0.2,0.9,0.1c0.7-0.2,1.3-0.5,1.7-1.1c0.5-0.5,0.8-1.2,1.1-1.9c0.4-0.8,0.6-1.7,0.9-2.5l0,0
							C853.8,675.3,853.9,674.8,854,674.4z"/>
					</g>
				</g>
				<g>
					<g>
						<g>
							<path class="st6" d="M855.1,526c0-0.1,0-0.2-0.1-0.3c-0.2-0.9-0.5-1.8-1.1-2.4c0,0-0.1-0.1-0.1-0.1c-0.4-0.5-0.9-0.8-1.5-1
								l-0.2-0.1c-0.1,0-0.1,0-0.2,0h0c0,0-0.1,0-0.1,0c-0.4-0.1-0.8-0.1-1.2,0c-0.5,0.1-1,0.2-1.4,0.5c-0.1,0-0.1,0.1-0.2,0.1
								c-1.5,0.8-2.8,2.5-3.5,4.6c-0.5,1.4-0.6,2.8-0.4,4c0,0.1,0,0.2,0.1,0.3c0.2,1,0.5,1.9,1.1,2.6c0,0,0.1,0.1,0.1,0.1
								c0.3,0.3,0.5,0.5,0.9,0.7c0.1,0,0.1,0.1,0.2,0.1c0.2,0.1,0.3,0.1,0.5,0.2c0,0,0,0,0.1,0c0,0,0.1,0,0.2,0
								c0.1,0,0.2,0.1,0.3,0.1c2.4,0.4,5.1-1.8,6.2-5.2c0.1-0.4,0.3-0.9,0.3-1.3c0-0.1,0-0.1,0-0.2
								C855.2,527.8,855.2,526.8,855.1,526z"/>
						</g>
					</g>
					<g>
						<g>
							<path class="st7" d="M853.9,526c0-0.1,0-0.2-0.1-0.3c-0.1-0.4-0.2-0.7-0.3-1.1c0,0,0,0,0,0c0-0.1-0.1-0.1-0.1-0.2
								c0,0,0,0,0,0c-0.4-0.9-0.9-1.6-1.7-2c0,0-0.1,0-0.1-0.1c-0.2-0.1-0.3-0.2-0.5-0.2l-0.2-0.1c-0.1,0-0.3-0.1-0.4-0.1
								c-0.5,0.1-1,0.2-1.4,0.5c-0.1,0-0.1,0.1-0.2,0.1c-1.5,0.8-2.8,2.5-3.5,4.6c-0.5,1.4-0.6,2.8-0.4,4c0,0.1,0,0.2,0.1,0.3
								c0.2,1,0.5,1.9,1.1,2.6c0,0,0.1,0.1,0.1,0.1c0.3,0.3,0.5,0.5,0.9,0.7c0.1,0,0.1,0.1,0.2,0.1c0.2,0.1,0.3,0.1,0.5,0.2
								c0,0,0,0,0.1,0c0,0,0.1,0,0.2,0c0.1,0,0.2,0.1,0.3,0.1c2.1-0.3,4.1-2.3,5.1-5.2c0.1-0.2,0.1-0.3,0.1-0.5c0-0.1,0-0.1,0.1-0.2
								C854.1,528.3,854.1,527.1,853.9,526z"/>
						</g>
					</g>
					<g>
						<path class="st6" d="M849.2,522.5c-0.1,0-0.1,0.1-0.2,0.1c0,0.3-0.1,0.6-0.2,0.9c-0.2,0.6-0.5,1.2-0.8,1.8
							c-0.1,0.2-0.2,0.4-0.3,0.6c-0.7,1.5-1.2,3-1.3,4.5c-0.1,1.6,0.1,3.2,0.8,4.6c0.1,0,0.1,0.1,0.2,0.1c0,0,0-0.1-0.1-0.1
							c-0.6-1.4-0.9-2.9-0.8-4.6c0.1-1.5,0.5-3,1.3-4.5c0.1-0.2,0.2-0.4,0.3-0.6c0.3-0.6,0.6-1.2,0.8-1.8
							C849.1,523.2,849.2,522.8,849.2,522.5z"/>
					</g>
					<g>
						<path class="st6" d="M855,528.7c-0.4,0.3-0.8,0.5-1.3,0.8c-0.3,0.2-0.6,0.3-0.9,0.5c-0.2,0.1-0.4,0.2-0.6,0.3
							c-0.7,0.4-1.5,0.8-2.2,1.3c-1,0.7-1.7,1.6-2,2.5c-0.1,0.4-0.2,0.8-0.1,1.2c0,0,0.1,0,0.2,0c-0.1-0.4,0-0.8,0.1-1.2
							c0.3-0.9,1-1.7,1.9-2.4c0.7-0.5,1.4-0.9,2.2-1.3c0.2-0.1,0.4-0.2,0.6-0.3c0.3-0.1,0.5-0.3,0.7-0.4c0.5-0.3,0.9-0.5,1.3-0.8
							C855,528.8,855,528.8,855,528.7z"/>
					</g>
					<g>
						<path class="st6" d="M853.9,523.3c0,0-0.1-0.1-0.1-0.1c-0.1,0.4-0.2,0.8-0.3,1.2c0,0,0,0,0,0c-0.3,0.9-0.6,1.8-0.9,2.6
							c-0.3,0.6-0.6,1.3-1.1,1.8c-0.4,0.5-1,0.8-1.7,1c-0.4,0.1-0.6,0.1-0.8,0c-0.3-0.2-0.3-0.7-0.3-1c0.2-1.5,1-2.8,1.8-4
							c0.2-0.3,0.3-0.5,0.5-0.8c0.3-0.5,0.6-1,0.8-1.6c0.1-0.1,0.1-0.3,0.2-0.4c0,0-0.1,0-0.1,0c0,0.1-0.1,0.2-0.1,0.3
							c-0.2,0.6-0.5,1.1-0.8,1.6c-0.2,0.3-0.3,0.5-0.5,0.8c-0.8,1.3-1.6,2.6-1.8,4.1c-0.1,0.4-0.1,0.9,0.3,1.2
							c0.2,0.1,0.5,0.2,0.9,0.1c0.7-0.2,1.3-0.5,1.7-1.1c0.5-0.5,0.8-1.2,1.1-1.9c0.4-0.8,0.6-1.7,0.9-2.5v0
							C853.7,524.2,853.8,523.7,853.9,523.3z"/>
					</g>
				</g>
			</g>
			<g>
				<text transform="matrix(1 0 0 1 873.277 485.096)" class="st1 st2 st5">Sit amet consectetur</text>
			</g>
			<g>
				<text transform="matrix(1 0 0 1 873.277 535.096)" class="st1 st2 st5">Mauris nisl dui</text>
			</g>
			<g>
				<text transform="matrix(1 0 0 1 873.277 585.0959)" class="st1 st2 st5">Viverra in porttitor vitae</text>
			</g>
			<g>
				<text transform="matrix(1 0 0 1 873.277 635.0959)" class="st1 st2 st5">Integer vitae commodo</text>
			</g>
			<g>
				<text transform="matrix(1 0 0 1 873.277 685.0959)" class="st1 st2 st5">Nullam malesuada dictum</text>
			</g>
		</g>
	</g>
</g>
</svg>
