<?xml version="1.0" encoding="utf-8"?>
<!-- Generator: Adobe Illustrator 27.4.1, SVG Export Plug-In . SVG Version: 6.00 Build 0)  -->
<svg version="1.1" id="Location" xmlns="http://www.w3.org/2000/svg" xmlns:xlink="http://www.w3.org/1999/xlink" x="0px" y="0px"
	 viewBox="0 0 1920 1080" style="enable-background:new 0 0 1920 1080;" xml:space="preserve">
<style type="text/css">
	.st0{fill:#D8BFB1;}
	.st1{fill:#3E3E3F;}
	.st2{font-family:'FiraSans-Medium';}
	.st3{font-size:31.5184px;}
	.st4{fill:none;}
	.st5{font-family:'FiraSans-ExtraLight';}
	.st6{font-size:25.2147px;}
	.st7{letter-spacing:10;}
	.st8{letter-spacing:8;}
</style>
<g id="Feature_3_00000128463114364438324060000006309196081499668874_">
	<path class="st0" d="M1203.4,756.5H726.9c-3.3,0-6-2.7-6-6V313.3c0-3.3,2.7-6,6-6h476.5c3.3,0,6,2.7,6,6v437.1
		C1209.4,753.8,1206.7,756.5,1203.4,756.5z"/>
	<text transform="matrix(1 0 0 1 896.322 403.531)" class="st1 st2 st3">Locations</text>
	<rect x="767.9" y="447.8" class="st4" width="394.5" height="200.1"/>
	<text transform="matrix(1 0 0 1 767.8967 469.0427)"><tspan x="0" y="0" class="st1 st5 st6">Nulla</tspan><tspan x="59.3" y="0" class="st1 st5 st6 st7"> </tspan><tspan x="77.3" y="0" class="st1 st5 st6">aliquam</tspan><tspan x="168.3" y="0" class="st1 st5 st6 st7"> </tspan><tspan x="186.3" y="0" class="st1 st5 st6">pulvinar</tspan><tspan x="278.1" y="0" class="st1 st5 st6 st7"> </tspan><tspan x="296.1" y="0" class="st1 st5 st6">tristique. </tspan><tspan x="0" y="41" class="st1 st5 st6">Integer porttitor accumsan facilisis. </tspan><tspan x="0" y="81.9" class="st1 st5 st6">Sed</tspan><tspan x="41.4" y="81.9" class="st1 st5 st6"> </tspan><tspan x="48.5" y="81.9" class="st1 st5 st6">a</tspan><tspan x="61.9" y="81.9" class="st1 st5 st6"> </tspan><tspan x="69" y="81.9" class="st1 st5 st6">aliquam</tspan><tspan x="160.1" y="81.9" class="st1 st5 st6"> </tspan><tspan x="167.2" y="81.9" class="st1 st5 st6">ante</tspan><tspan x="217.1" y="81.9" class="st1 st5 st6"> </tspan><tspan x="224.2" y="81.9" class="st1 st5 st6">venenatis</tspan><tspan x="331.9" y="81.9" class="st1 st5 st6"> </tspan><tspan x="339" y="81.9" class="st1 st5 st6">justo </tspan><tspan x="0" y="122.9" class="st1 st5 st6">hendrerit feugiat. Morbi volutpat ut </tspan><tspan x="0" y="163.9" class="st1 st5 st6">erat</tspan><tspan x="44.5" y="163.9" class="st1 st5 st6 st8"> </tspan><tspan x="60.1" y="163.9" class="st1 st5 st6">quis</tspan><tspan x="107.2" y="163.9" class="st1 st5 st6 st8"> </tspan><tspan x="122.8" y="163.9" class="st1 st5 st6">bibendum</tspan><tspan x="236.7" y="163.9" class="st1 st5 st6 st8"> </tspan><tspan x="252.2" y="163.9" class="st1 st5 st6">suspendisse.</tspan></text>
</g>
</svg>
